<svg width="27" height="27" viewBox="0 0 27 27" fill="none" xmlns="http://www.w3.org/2000/svg">
<rect width="27" height="27" fill="#0E325D"/>
<rect x="3.5" y="7.5" width="20" height="12" rx="1.5" stroke="#F2F2F2"/>
<path d="M5.96982 15.8781C5.96982 15.7374 6.01083 15.6202 6.09286 15.5265C6.17783 15.4327 6.3038 15.3859 6.47079 15.3859C6.63779 15.3859 6.76376 15.4327 6.84872 15.5265C6.93661 15.6202 6.98056 15.7374 6.98056 15.8781C6.98056 16.0128 6.93661 16.1256 6.84872 16.2164C6.76376 16.3073 6.63779 16.3527 6.47079 16.3527C6.3038 16.3527 6.17783 16.3073 6.09286 16.2164C6.01083 16.1256 5.96982 16.0128 5.96982 15.8781ZM5.97421 11.9977C5.97421 11.8571 6.01523 11.7399 6.09726 11.6461C6.18222 11.5524 6.3082 11.5055 6.47519 11.5055C6.64218 11.5055 6.76816 11.5524 6.85312 11.6461C6.94101 11.7399 6.98495 11.8571 6.98495 11.9977C6.98495 12.1324 6.94101 12.2452 6.85312 12.3361C6.76816 12.4269 6.64218 12.4723 6.47519 12.4723C6.3082 12.4723 6.18222 12.4269 6.09726 12.3361C6.01523 12.2452 5.97421 12.1324 5.97421 11.9977ZM8.33847 16.8536H7.63974L10.3116 9.90588H11.006L8.33847 16.8536ZM11.0631 16.8536H10.3643L13.0362 9.90588H13.7306L11.0631 16.8536Z" fill="#F2F2F2"/>
<path d="M17.5 5H19M17.5 5H16M17.5 5V22M17.5 22H19M17.5 22H16" stroke="#F2F2F2" stroke-linecap="round"/>
</svg>
