<svg width="140" height="19" viewBox="0 0 140 19" fill="none" xmlns="http://www.w3.org/2000/svg">
<path d="M6.048 15.192C5.13067 15.192 4.336 15.032 3.664 14.712C3.00267 14.392 2.45333 13.96 2.016 13.416C1.57867 12.8613 1.25333 12.2373 1.04 11.544C0.837333 10.8507 0.736 10.136 0.736 9.4C0.736 8.6 0.853333 7.832 1.088 7.096C1.32267 6.34933 1.664 5.68267 2.112 5.096C2.57067 4.50933 3.14133 4.04533 3.824 3.704C4.50667 3.36267 5.296 3.192 6.192 3.192C6.56533 3.192 6.97067 3.24 7.408 3.336C7.856 3.42133 8.28267 3.55467 8.688 3.736C9.09333 3.91733 9.424 4.15733 9.68 4.456L8.848 5.384C8.53867 5.04267 8.12267 4.78133 7.6 4.6C7.088 4.408 6.608 4.312 6.16 4.312C5.54133 4.312 4.99733 4.456 4.528 4.744C4.05867 5.02133 3.664 5.4 3.344 5.88C3.024 6.36 2.77867 6.89867 2.608 7.496C2.448 8.09333 2.368 8.70133 2.368 9.32C2.368 10.28 2.52267 11.112 2.832 11.816C3.14133 12.5093 3.57867 13.048 4.144 13.432C4.70933 13.8053 5.376 13.992 6.144 13.992C6.592 13.992 7.07733 13.928 7.6 13.8C8.12267 13.672 8.66133 13.4693 9.216 13.192L9.712 14.104C9.40267 14.328 9.02933 14.52 8.592 14.68C8.16533 14.84 7.728 14.9627 7.28 15.048C6.832 15.144 6.42133 15.192 6.048 15.192ZM13.7869 15.208C13.0082 15.208 12.3522 15.016 11.8189 14.632C11.2962 14.2373 10.9015 13.7253 10.6349 13.096C10.3789 12.4667 10.2509 11.7947 10.2509 11.08C10.2509 10.3653 10.3895 9.688 10.6669 9.048C10.9549 8.39733 11.3709 7.86933 11.9149 7.464C12.4589 7.05867 13.1149 6.856 13.8829 6.856C14.6722 6.856 15.3282 7.048 15.8509 7.432C16.3842 7.816 16.7789 8.32267 17.0349 8.952C17.3015 9.58133 17.4349 10.2587 17.4349 10.984C17.4349 11.7093 17.2962 12.3973 17.0189 13.048C16.7415 13.688 16.3309 14.2107 15.7869 14.616C15.2429 15.0107 14.5762 15.208 13.7869 15.208ZM13.8029 14.2C14.2189 14.2 14.5655 14.104 14.8429 13.912C15.1309 13.7093 15.3602 13.448 15.5309 13.128C15.7122 12.808 15.8402 12.4667 15.9149 12.104C15.9895 11.7307 16.0269 11.3733 16.0269 11.032C16.0269 10.68 15.9895 10.3227 15.9149 9.96C15.8509 9.58667 15.7389 9.24533 15.5789 8.936C15.4189 8.616 15.1949 8.36 14.9069 8.168C14.6295 7.96533 14.2829 7.864 13.8669 7.864C13.4509 7.864 13.0989 7.96533 12.8109 8.168C12.5335 8.36 12.3095 8.616 12.1389 8.936C11.9682 9.256 11.8455 9.60267 11.7709 9.976C11.6962 10.3387 11.6589 10.6907 11.6589 11.032C11.6589 11.3627 11.6962 11.7147 11.7709 12.088C11.8455 12.4507 11.9629 12.792 12.1229 13.112C12.2935 13.432 12.5175 13.6933 12.7949 13.896C13.0722 14.0987 13.4082 14.2 13.8029 14.2ZM20.2553 6.936C20.4046 7.29867 20.5059 7.66667 20.5593 8.04C20.8473 7.76267 21.1993 7.496 21.6153 7.24C22.0313 6.984 22.4526 6.856 22.8793 6.856C23.3913 6.856 23.8286 6.96267 24.1913 7.176C24.5539 7.37867 24.8473 7.71467 25.0713 8.184C25.3913 7.864 25.7699 7.56533 26.2073 7.288C26.6446 7 27.0926 6.856 27.5513 6.856C28.4366 6.856 29.0606 7.12267 29.4233 7.656C29.7966 8.18933 29.9833 8.86667 29.9833 9.688V15H28.6553V10.12C28.6553 9.8 28.6286 9.48 28.5753 9.16C28.5326 8.84 28.4153 8.57333 28.2233 8.36C28.0419 8.14667 27.7433 8.04 27.3273 8.04C26.9539 8.04 26.5859 8.16267 26.2233 8.408C25.8606 8.64267 25.5566 8.88267 25.3113 9.128V15H23.9833V10.12C23.9833 9.78933 23.9566 9.46933 23.9033 9.16C23.8606 8.84 23.7433 8.57333 23.5513 8.36C23.3699 8.14667 23.0713 8.04 22.6553 8.04C22.4206 8.04 22.1806 8.09867 21.9353 8.216C21.6899 8.32267 21.4553 8.46133 21.2313 8.632C21.0073 8.792 20.8099 8.94667 20.6393 9.096V15H19.3113V9.224C19.3113 8.89333 19.2686 8.53067 19.1833 8.136C19.1086 7.73067 18.9806 7.384 18.7993 7.096L20.2553 6.936ZM33.5049 6.936C33.5902 7.10667 33.6542 7.288 33.6969 7.48C33.7502 7.66133 33.7875 7.84267 33.8089 8.024C34.0862 7.672 34.4275 7.39467 34.8329 7.192C35.2489 6.97867 35.6862 6.872 36.1449 6.872C36.7102 6.872 37.2009 6.98933 37.6169 7.224C38.0329 7.45867 38.3742 7.77867 38.6409 8.184C38.9182 8.57867 39.1209 9.02133 39.2489 9.512C39.3875 9.992 39.4569 10.4827 39.4569 10.984C39.4569 11.7093 39.3235 12.3973 39.0569 13.048C38.8009 13.688 38.4062 14.2107 37.8729 14.616C37.3502 15.0107 36.6889 15.208 35.8889 15.208C35.5262 15.208 35.1635 15.1493 34.8009 15.032C34.4489 14.9147 34.1395 14.7333 33.8729 14.488C33.8942 14.6373 33.9049 14.7867 33.9049 14.936C33.9049 15.0853 33.9049 15.2027 33.9049 15.288V17.512L34.1289 18.456H32.5929V9.368C32.5929 9.03733 32.5555 8.65333 32.4809 8.216C32.4062 7.768 32.2782 7.4 32.0969 7.112L33.5049 6.936ZM35.7449 8.04C35.3822 8.04 35.0409 8.152 34.7209 8.376C34.4009 8.58933 34.1289 8.82933 33.9049 9.096V11.784C33.9049 12.2 33.9689 12.5893 34.0969 12.952C34.2355 13.304 34.4489 13.5867 34.7369 13.8C35.0249 14.0133 35.3982 14.12 35.8569 14.12C36.4222 14.12 36.8595 13.9653 37.1689 13.656C37.4889 13.3467 37.7129 12.9573 37.8409 12.488C37.9795 12.0187 38.0489 11.5493 38.0489 11.08C38.0489 10.5893 37.9742 10.1147 37.8249 9.656C37.6755 9.18667 37.4302 8.80267 37.0889 8.504C36.7582 8.19467 36.3102 8.04 35.7449 8.04ZM44.4275 15.208C43.6488 15.208 42.9928 15.016 42.4595 14.632C41.9368 14.2373 41.5422 13.7253 41.2755 13.096C41.0195 12.4667 40.8915 11.7947 40.8915 11.08C40.8915 10.3653 41.0302 9.688 41.3075 9.048C41.5955 8.39733 42.0115 7.86933 42.5555 7.464C43.0995 7.05867 43.7555 6.856 44.5235 6.856C45.3128 6.856 45.9688 7.048 46.4915 7.432C47.0248 7.816 47.4195 8.32267 47.6755 8.952C47.9422 9.58133 48.0755 10.2587 48.0755 10.984C48.0755 11.7093 47.9368 12.3973 47.6595 13.048C47.3822 13.688 46.9715 14.2107 46.4275 14.616C45.8835 15.0107 45.2168 15.208 44.4275 15.208ZM44.4435 14.2C44.8595 14.2 45.2062 14.104 45.4835 13.912C45.7715 13.7093 46.0008 13.448 46.1715 13.128C46.3528 12.808 46.4808 12.4667 46.5555 12.104C46.6302 11.7307 46.6675 11.3733 46.6675 11.032C46.6675 10.68 46.6302 10.3227 46.5555 9.96C46.4915 9.58667 46.3795 9.24533 46.2195 8.936C46.0595 8.616 45.8355 8.36 45.5475 8.168C45.2702 7.96533 44.9235 7.864 44.5075 7.864C44.0915 7.864 43.7395 7.96533 43.4515 8.168C43.1742 8.36 42.9502 8.616 42.7795 8.936C42.6088 9.256 42.4862 9.60267 42.4115 9.976C42.3368 10.3387 42.2995 10.6907 42.2995 11.032C42.2995 11.3627 42.3368 11.7147 42.4115 12.088C42.4862 12.4507 42.6035 12.792 42.7635 13.112C42.9342 13.432 43.1582 13.6933 43.4355 13.896C43.7128 14.0987 44.0488 14.2 44.4435 14.2ZM52.6853 6.856C53.0479 6.856 53.4053 6.904 53.7573 7C54.1199 7.08533 54.4506 7.224 54.7493 7.416L54.2853 8.44C54.0506 8.248 53.7893 8.104 53.5013 8.008C53.2133 7.912 52.9306 7.864 52.6533 7.864C52.2586 7.864 51.9119 7.95467 51.6133 8.136C51.3253 8.31733 51.1813 8.58933 51.1813 8.952C51.1813 9.34667 51.3093 9.64 51.5653 9.832C51.8319 10.024 52.1466 10.2053 52.5093 10.376C52.8613 10.536 53.2133 10.7173 53.5653 10.92C53.9279 11.112 54.2319 11.3627 54.4773 11.672C54.7226 11.9707 54.8453 12.376 54.8453 12.888C54.8453 13.4213 54.7119 13.864 54.4453 14.216C54.1893 14.5573 53.8479 14.808 53.4213 14.968C53.0053 15.128 52.5519 15.208 52.0613 15.208C51.6346 15.208 51.2079 15.1493 50.7812 15.032C50.3546 14.9147 49.9599 14.7493 49.5973 14.536L50.1573 13.56C50.4133 13.752 50.7013 13.9067 51.0213 14.024C51.3413 14.1413 51.6506 14.2 51.9493 14.2C52.3546 14.2 52.7066 14.104 53.0052 13.912C53.3146 13.72 53.4693 13.432 53.4693 13.048C53.4693 12.7813 53.3839 12.5627 53.2133 12.392C53.0533 12.2107 52.8453 12.0507 52.5893 11.912C52.3333 11.7733 52.0666 11.64 51.7893 11.512C51.4693 11.352 51.1546 11.1813 50.8453 11C50.5466 10.808 50.3013 10.568 50.1093 10.28C49.9173 9.992 49.8213 9.624 49.8213 9.176C49.8213 8.664 49.9546 8.23733 50.2213 7.896C50.4986 7.55467 50.8559 7.29867 51.2933 7.128C51.7306 6.94667 52.1946 6.856 52.6853 6.856ZM59.9763 6.856C60.9363 6.856 61.6616 7.144 62.1523 7.72C62.6536 8.28533 62.9043 9.032 62.9043 9.96C62.9043 10.1093 62.8936 10.264 62.8723 10.424C62.8616 10.5733 62.8456 10.7333 62.8243 10.904H57.7682C57.7682 11.9173 57.9923 12.7013 58.4403 13.256C58.8883 13.8107 59.4856 14.088 60.2323 14.088C60.8403 14.088 61.5123 13.896 62.2483 13.512L62.7443 14.312C62.3709 14.6107 61.9496 14.8347 61.4803 14.984C61.0109 15.1333 60.5363 15.208 60.0563 15.208C59.2243 15.208 58.5309 15.0107 57.9763 14.616C57.4323 14.2213 57.0269 13.7093 56.7603 13.08C56.4936 12.4507 56.3603 11.7947 56.3603 11.112C56.3603 10.5787 56.4349 10.0613 56.5843 9.56C56.7336 9.05867 56.9576 8.60533 57.2563 8.2C57.5656 7.784 57.9443 7.45867 58.3923 7.224C58.8403 6.97867 59.3683 6.856 59.9763 6.856ZM59.8483 7.864C59.4856 7.864 59.1656 7.96533 58.8883 8.168C58.6109 8.37067 58.3869 8.632 58.2163 8.952C58.0456 9.26133 57.9283 9.58133 57.8643 9.912H61.5123C61.5336 9.25067 61.3949 8.744 61.0963 8.392C60.7976 8.04 60.3816 7.864 59.8483 7.864Z" fill="#F2F2F2"/>
<path d="M94.152 3.352H100.6V4.456H95.864V8.472H99.624V9.56H95.864V15H94.376V4.408L94.152 3.352ZM104.349 15.208C103.571 15.208 102.915 15.016 102.381 14.632C101.859 14.2373 101.464 13.7253 101.197 13.096C100.941 12.4667 100.813 11.7947 100.813 11.08C100.813 10.3653 100.952 9.688 101.229 9.048C101.517 8.39733 101.933 7.86933 102.477 7.464C103.021 7.05867 103.677 6.856 104.445 6.856C105.235 6.856 105.891 7.048 106.413 7.432C106.947 7.816 107.341 8.32267 107.597 8.952C107.864 9.58133 107.997 10.2587 107.997 10.984C107.997 11.7093 107.859 12.3973 107.581 13.048C107.304 13.688 106.893 14.2107 106.349 14.616C105.805 15.0107 105.139 15.208 104.349 15.208ZM104.365 14.2C104.781 14.2 105.128 14.104 105.405 13.912C105.693 13.7093 105.923 13.448 106.093 13.128C106.275 12.808 106.403 12.4667 106.477 12.104C106.552 11.7307 106.589 11.3733 106.589 11.032C106.589 10.68 106.552 10.3227 106.477 9.96C106.413 9.58667 106.301 9.24533 106.141 8.936C105.981 8.616 105.757 8.36 105.469 8.168C105.192 7.96533 104.845 7.864 104.429 7.864C104.013 7.864 103.661 7.96533 103.373 8.168C103.096 8.36 102.872 8.616 102.701 8.936C102.531 9.256 102.408 9.60267 102.333 9.976C102.259 10.3387 102.221 10.6907 102.221 11.032C102.221 11.3627 102.259 11.7147 102.333 12.088C102.408 12.4507 102.525 12.792 102.685 13.112C102.856 13.432 103.08 13.6933 103.357 13.896C103.635 14.0987 103.971 14.2 104.365 14.2ZM110.818 6.904C111.01 7.37333 111.132 7.86933 111.186 8.392C111.463 7.95467 111.836 7.59733 112.306 7.32C112.775 7.04267 113.271 6.904 113.794 6.904L113.474 8.312C112.962 8.312 112.524 8.44533 112.162 8.712C111.81 8.97867 111.495 9.31467 111.218 9.72V15H109.89V9.24C109.89 8.93067 109.847 8.56267 109.762 8.136C109.687 7.69867 109.559 7.34667 109.378 7.08L110.818 6.904ZM116.396 6.936C116.545 7.29867 116.647 7.66667 116.7 8.04C116.988 7.76267 117.34 7.496 117.756 7.24C118.172 6.984 118.593 6.856 119.02 6.856C119.532 6.856 119.969 6.96267 120.332 7.176C120.695 7.37867 120.988 7.71467 121.212 8.184C121.532 7.864 121.911 7.56533 122.348 7.288C122.785 7 123.233 6.856 123.692 6.856C124.577 6.856 125.201 7.12267 125.564 7.656C125.937 8.18933 126.124 8.86667 126.124 9.688V15H124.796V10.12C124.796 9.8 124.769 9.48 124.716 9.16C124.673 8.84 124.556 8.57333 124.364 8.36C124.183 8.14667 123.884 8.04 123.468 8.04C123.095 8.04 122.727 8.16267 122.364 8.408C122.001 8.64267 121.697 8.88267 121.452 9.128V15H120.124V10.12C120.124 9.78933 120.097 9.46933 120.044 9.16C120.001 8.84 119.884 8.57333 119.692 8.36C119.511 8.14667 119.212 8.04 118.796 8.04C118.561 8.04 118.321 8.09867 118.076 8.216C117.831 8.32267 117.596 8.46133 117.372 8.632C117.148 8.792 116.951 8.94667 116.78 9.096V15H115.452V9.224C115.452 8.89333 115.409 8.53067 115.324 8.136C115.249 7.73067 115.121 7.384 114.94 7.096L116.396 6.936ZM131.342 6.856C131.704 6.856 132.062 6.904 132.414 7C132.776 7.08533 133.107 7.224 133.406 7.416L132.942 8.44C132.707 8.248 132.446 8.104 132.158 8.008C131.87 7.912 131.587 7.864 131.31 7.864C130.915 7.864 130.568 7.95467 130.27 8.136C129.982 8.31733 129.838 8.58933 129.838 8.952C129.838 9.34667 129.966 9.64 130.222 9.832C130.488 10.024 130.803 10.2053 131.166 10.376C131.518 10.536 131.87 10.7173 132.222 10.92C132.584 11.112 132.888 11.3627 133.134 11.672C133.379 11.9707 133.502 12.376 133.502 12.888C133.502 13.4213 133.368 13.864 133.102 14.216C132.846 14.5573 132.504 14.808 132.078 14.968C131.662 15.128 131.208 15.208 130.718 15.208C130.291 15.208 129.864 15.1493 129.438 15.032C129.011 14.9147 128.616 14.7493 128.254 14.536L128.814 13.56C129.07 13.752 129.358 13.9067 129.678 14.024C129.998 14.1413 130.307 14.2 130.606 14.2C131.011 14.2 131.363 14.104 131.661 13.912C131.971 13.72 132.126 13.432 132.126 13.048C132.126 12.7813 132.04 12.5627 131.87 12.392C131.71 12.2107 131.502 12.0507 131.246 11.912C130.99 11.7733 130.723 11.64 130.446 11.512C130.126 11.352 129.811 11.1813 129.502 11C129.203 10.808 128.958 10.568 128.766 10.28C128.574 9.992 128.478 9.624 128.478 9.176C128.478 8.664 128.611 8.23733 128.878 7.896C129.155 7.55467 129.512 7.29867 129.95 7.128C130.387 6.94667 130.851 6.856 131.342 6.856Z" fill="#F2F2F2"/>
<rect x="68.5" y="3.5" width="20" height="12" rx="1.5" stroke="#F2F2F2"/>
<path d="M70.9698 11.8781C70.9698 11.7374 71.0108 11.6202 71.0929 11.5265C71.1778 11.4327 71.3038 11.3859 71.4708 11.3859C71.6378 11.3859 71.7638 11.4327 71.8487 11.5265C71.9366 11.6202 71.9806 11.7374 71.9806 11.8781C71.9806 12.0128 71.9366 12.1256 71.8487 12.2164C71.7638 12.3073 71.6378 12.3527 71.4708 12.3527C71.3038 12.3527 71.1778 12.3073 71.0929 12.2164C71.0108 12.1256 70.9698 12.0128 70.9698 11.8781ZM70.9742 7.99768C70.9742 7.85706 71.0152 7.73987 71.0973 7.64612C71.1822 7.55237 71.3082 7.50549 71.4752 7.50549C71.6422 7.50549 71.7682 7.55237 71.8531 7.64612C71.941 7.73987 71.985 7.85706 71.985 7.99768C71.985 8.13245 71.941 8.24524 71.8531 8.33606C71.7682 8.42688 71.6422 8.47229 71.4752 8.47229C71.3082 8.47229 71.1822 8.42688 71.0973 8.33606C71.0152 8.24524 70.9742 8.13245 70.9742 7.99768ZM73.3385 12.8536H72.6397L75.3116 5.90588H76.006L73.3385 12.8536ZM76.0631 12.8536H75.3643L78.0362 5.90588H78.7306L76.0631 12.8536Z" fill="#F2F2F2"/>
<path d="M82.5 1H84M82.5 1H81M82.5 1V18M82.5 18H84M82.5 18H81" stroke="#F2F2F2" stroke-linecap="round"/>
</svg>
